<?xml version="1.0" standalone="no"?>
<!DOCTYPE svg PUBLIC "-//W3C//DTD SVG 1.1//EN" "http://www.w3.org/Graphics/SVG/1.1/DTD/svg11.dtd" >
<svg xmlns="http://www.w3.org/2000/svg">
<metadata></metadata>
<defs>
<font id="urwberontdemregular" horiz-adv-x="1024" vert-adv-y="2048" >
<font-face units-per-em="2048" ascent="1658" descent="-390" />
<missing-glyph horiz-adv-x="614" />
<glyph horiz-adv-x="0" vert-adv-y="0" />
<glyph horiz-adv-x="682" />
<glyph unicode=" " horiz-adv-x="614" vert-adv-y="1229" />
<glyph unicode="!" horiz-adv-x="512" vert-adv-y="1229" d="M171 67q0 35 25 61q25 25 61 25q35 0 61 -25q25 -25 25 -61t-25 -61t-62 -25q-36 0 -60 25q-25 26 -25 61zM206 270v1095h147l-57 -1095h-90z" />
<glyph unicode="&#x22;" horiz-adv-x="648" vert-adv-y="1229" d="M106 1365h149l-22 -546h-106zM394 1365h148l-21 -546h-106z" />
<glyph unicode="#" horiz-adv-x="1230" vert-adv-y="1229" d="M123 458l16 116h232l27 193h-232l17 117h231l51 361h119l-51 -361h218l51 361h119l-51 -361h237l-16 -117h-237l-27 -193h237l-17 -116h-237l-55 -392h-119l56 392h-219l-55 -392h-119l56 392h-232zM490 574h218l27 193h-218z" />
<glyph unicode="$" horiz-adv-x="1010" vert-adv-y="1229" d="M128 20v382h99q9 -104 67 -179q66 -78 166 -102v516q-166 67 -224 124q-98 95 -98 235q0 104 60 194q82 123 262 139v134h85v-134q130 -25 205 -122l20 108h72v-365h-92q-28 225 -205 262v-470q167 -62 233 -125q104 -101 104 -249q0 -159 -118 -261q-81 -69 -219 -87 v-182h-85v182q-138 19 -233 120l-23 -120h-76zM275 1006q0 -96 66 -156q37 -34 119 -75v441q-58 -3 -94 -27q-91 -60 -91 -183zM545 123q200 52 200 236q0 105 -71 165q-38 33 -129 77v-478z" />
<glyph unicode="%" horiz-adv-x="1079" vert-adv-y="1229" d="M39 0l927 1290h93l-927 -1290h-93zM56 994q0 159 86 249q64 66 162 66q92 0 156 -66q86 -90 86 -248q0 -157 -86 -248q-63 -66 -159 -66t-159 66q-86 91 -86 247zM160 996q0 -102 40 -166q35 -56 101 -56q65 0 100 56q40 64 40 165q0 103 -40 166q-36 56 -102 56 q-63 0 -99 -56q-40 -63 -40 -165zM550 294q0 159 86 249q64 66 162 66q92 0 156 -66q86 -91 86 -248t-86 -248q-63 -66 -159 -66t-159 66q-86 91 -86 247zM654 296q0 -101 40 -165q36 -56 101 -56t100 56q40 63 40 164q0 103 -40 166q-36 56 -102 56q-63 0 -99 -56 q-40 -63 -40 -165z" />
<glyph unicode="&#x26;" horiz-adv-x="1256" vert-adv-y="1229" d="M47 243q0 121 113 239q71 74 198 166q-154 174 -154 302q0 118 86 198q82 76 198 76q101 0 175 -63q87 -75 87 -187q0 -94 -75 -185q-50 -59 -146 -141l201 -230l170 244q21 31 21 46q0 27 -48 27h-41v101h369v-101h-27q-58 0 -87 -14q-28 -12 -71 -73l-217 -309 l197 -224h205v-115h-281l-203 235q-79 -117 -147 -171q-101 -78 -234 -78t-211 74t-78 183zM178 261q0 -80 66 -126q49 -34 114 -34q82 0 154 56q57 45 134 158l-218 250q-116 -90 -165 -136q-85 -81 -85 -168zM335 958q0 -68 48 -144q13 -19 73 -82q45 36 57 46 q114 95 114 187q0 67 -51 112q-36 33 -89 33q-69 0 -113 -52q-39 -45 -39 -100z" />
<glyph unicode="'" horiz-adv-x="364" vert-adv-y="1229" d="M106 1365h152l-21 -546h-110z" />
<glyph unicode="(" horiz-adv-x="531" vert-adv-y="1229" d="M76 494q0 279 75 545q38 137 126 354h103q-77 -225 -109 -358q-58 -244 -58 -543q0 -284 52 -521q36 -162 104 -329h-92q-81 180 -124 325q-77 262 -77 527z" />
<glyph unicode=")" horiz-adv-x="531" vert-adv-y="1229" d="M150 1393h103q88 -216 127 -354q74 -266 74 -545q0 -266 -77 -527q-43 -146 -124 -325h-92q68 166 104 329q52 238 52 521q0 299 -58 543q-32 134 -109 358z" />
<glyph unicode="*" horiz-adv-x="884" vert-adv-y="1229" d="M137 1135l28 85l234 -76v245h90v-245l231 76l28 -85l-232 -76l146 -198l-74 -54l-144 199l-145 -199l-74 54l146 198z" />
<glyph unicode="+" vert-adv-y="1229" d="M102 589v112h354v354h112v-354h353v-112h-353v-353h-112v353h-354z" />
<glyph unicode="," horiz-adv-x="478" vert-adv-y="1229" d="M56 -306l123 483h142l-168 -483h-97z" />
<glyph unicode="-" horiz-adv-x="452" vert-adv-y="1229" d="M0 373v107h452v-107h-452z" />
<glyph unicode="." horiz-adv-x="478" vert-adv-y="1229" d="M153 67q0 35 25 61q25 25 61 25q35 0 61 -25q25 -25 25 -61t-25 -61t-62 -25q-36 0 -60 25q-25 26 -25 61z" />
<glyph unicode="/" horiz-adv-x="850" vert-adv-y="1229" d="M27 -253l641 1645l86 -43l-639 -1643z" />
<glyph unicode="0" horiz-adv-x="1010" vert-adv-y="1229" d="M97 638q0 356 156 549q99 122 256 122q95 0 180 -60q117 -82 177 -272q46 -145 46 -335q0 -343 -155 -539q-97 -122 -252 -122q-156 0 -253 122q-155 196 -155 535zM228 642q0 -292 107 -454q64 -97 164 -97q66 0 126 48q79 65 122 220q34 125 34 282q0 296 -109 460 q-64 98 -172 98q-101 0 -165 -98q-107 -163 -107 -459z" />
<glyph unicode="1" horiz-adv-x="1010" vert-adv-y="1229" d="M272 1098v102q211 44 288 118v-1203h146v-115h-421v115h141v983h-154z" />
<glyph unicode="2" horiz-adv-x="1010" vert-adv-y="1229" d="M96 937q0 165 117 271q112 101 282 101q120 0 217 -53q87 -47 133 -141q45 -91 45 -188q0 -200 -188 -416q-119 -137 -410 -396h341q108 1 137 22q21 14 27 51q5 33 9 112h88v-300h-770v115q199 172 271 240q196 187 288 334q72 115 72 231q0 132 -81 207q-73 68 -192 68 q-114 0 -190 -74q-74 -72 -74 -174q0 -150 152 -238l-78 -103q-196 134 -196 331z" />
<glyph unicode="3" horiz-adv-x="1010" vert-adv-y="1229" d="M111 84v137q162 -128 310 -128q94 0 173 49q76 48 110 134q24 61 24 127q0 125 -87 205q-80 74 -199 74q-50 0 -120 -20v92l384 427h-342q-81 0 -107 -10q-42 -15 -57 -59q-8 -33 -12 -116h-77v294h742v-109l-369 -410q28 2 42 2q124 0 219 -77q130 -105 130 -293 q0 -174 -113 -292q-125 -130 -322 -130q-152 0 -329 103z" />
<glyph unicode="4" horiz-adv-x="1010" vert-adv-y="1229" d="M92 400v101l497 789h131v-789h201v-101h-201v-285h159v-115h-446v115h156v285h-497zM205 501h384v611z" />
<glyph unicode="5" horiz-adv-x="1010" vert-adv-y="1229" d="M145 79v141q79 -61 130 -84q84 -38 168 -38q148 0 241 101q79 84 79 212q0 142 -92 227q-88 80 -232 80q-104 0 -184 -45q-43 -23 -110 -87v704h674v-111h-556v-420q101 59 218 59q188 0 303 -106q122 -111 122 -293q0 -180 -115 -301q-129 -137 -334 -137 q-101 0 -195 39q-42 17 -117 59z" />
<glyph unicode="6" horiz-adv-x="1010" vert-adv-y="1229" d="M112 371q0 96 48 203q27 61 118 207l321 509h146l-377 -583q91 51 179 51q108 0 203 -60q165 -105 165 -306q0 -173 -113 -292t-289 -119q-172 0 -285 108q-116 112 -116 282zM237 366q0 -117 84 -195q81 -76 196 -76q117 0 194 85q76 84 76 200q0 107 -69 182 q-81 88 -203 88q-115 0 -195 -80q-83 -83 -83 -204z" />
<glyph unicode="7" horiz-adv-x="1010" vert-adv-y="1229" d="M132 967v323h797v-116l-629 -1174h-153l642 1174h-393q-69 0 -103 -13q-68 -24 -68 -194h-93z" />
<glyph unicode="8" horiz-adv-x="1010" vert-adv-y="1229" d="M115 350q0 126 81 227q50 63 147 106q-91 45 -130 101q-55 80 -55 189q0 146 100 240q101 96 255 96q145 0 245 -86q112 -97 112 -250q0 -203 -188 -290q95 -47 141 -108q73 -96 73 -220q0 -162 -118 -271q-110 -103 -272 -103q-165 0 -276 104q-115 107 -115 265z M237 361q0 -122 88 -198q78 -68 183 -68q118 0 195 82q73 77 73 188q0 84 -46 153q-70 105 -228 105q-106 0 -179 -64q-86 -75 -86 -198zM280 967q0 -103 63 -169q65 -68 171 -68q105 0 170 68q63 66 63 168q0 115 -75 179q-66 55 -161 55q-90 0 -154 -55q-77 -66 -77 -178z " />
<glyph unicode="9" horiz-adv-x="1010" vert-adv-y="1229" d="M94 895q0 171 112 291q114 123 287 123t289 -115q115 -113 115 -280q0 -93 -48 -203q-37 -85 -114 -205l-324 -506h-144l376 580q-56 -31 -87 -41q-42 -15 -92 -15q-162 0 -273 119q-97 105 -97 252zM222 904q0 -112 78 -191t191 -79q124 0 205 87q75 82 75 197 q0 125 -89 200q-83 70 -193 70q-105 0 -182 -77q-85 -85 -85 -207z" />
<glyph unicode=":" horiz-adv-x="478" vert-adv-y="1229" d="M153 67q0 35 25 61q25 25 61 25q35 0 61 -25q25 -25 25 -61t-25 -61t-62 -25q-36 0 -60 25q-25 26 -25 61zM153 703q0 35 25 61q25 25 61 25q35 0 61 -25q25 -25 25 -61q0 -35 -25 -61q-25 -25 -62 -25q-36 0 -60 25q-25 27 -25 61z" />
<glyph unicode=";" horiz-adv-x="478" vert-adv-y="1229" d="M56 -306l123 483h142l-168 -483h-97zM153 703q0 35 25 61q25 25 62 25q35 0 60 -25t25 -61q0 -35 -25 -61q-25 -25 -62 -25q-36 0 -60 25q-25 27 -25 61z" />
<glyph unicode="&#x3c;" vert-adv-y="1229" d="M68 625v122l887 412v-140l-737 -334l737 -334v-139z" />
<glyph unicode="=" vert-adv-y="1229" d="M102 453v112h819v-112h-819zM102 726v112h819v-112h-819z" />
<glyph unicode="&#x3e;" vert-adv-y="1229" d="M69 212v140l737 334l-737 334v139l887 -413v-122z" />
<glyph unicode="?" horiz-adv-x="868" vert-adv-y="1229" d="M128 989v385h80l28 -97q102 113 249 113q139 0 224 -97q78 -89 78 -199q0 -99 -69 -185q-53 -67 -178 -146q-110 -69 -152 -113q-47 -50 -47 -111q0 -48 30 -88q42 -56 131 -56q43 0 98 26v-111q-75 -22 -126 -22q-129 0 -205 76q-69 69 -69 175t74 179q43 43 168 123 q108 69 148 105q61 55 61 129q0 79 -60 134q-58 53 -148 53q-86 0 -143 -62q-59 -65 -63 -160q-1 -17 -1 -51h-108zM349 67q0 35 25 61q25 25 61 25q35 0 61 -25q25 -25 25 -61t-25 -61t-62 -25q-36 0 -60 25q-25 26 -25 61z" />
<glyph unicode="@" horiz-adv-x="1458" vert-adv-y="1229" d="M27 680q0 206 109 380q105 170 290 259q158 76 336 76q181 0 339 -79q169 -84 257 -244q73 -133 73 -287q0 -175 -89 -316q-113 -177 -272 -177q-80 0 -124 55q-25 32 -27 73q-95 -135 -250 -135q-131 0 -214 98q-80 94 -80 237q0 175 113 303q102 117 249 117 q163 0 225 -156l25 131h115l-84 -432q-12 -61 -12 -89q0 -34 20 -58q20 -25 55 -25q69 0 127 69q97 117 97 299q0 227 -160 366q-152 131 -381 131q-250 0 -423 -167q-180 -175 -180 -432q0 -248 165 -418q166 -171 450 -171q227 0 424 92l35 -117q-206 -93 -457 -93 q-334 0 -538 199q-101 97 -157 231t-56 280zM516 624q0 -87 41 -143q50 -68 137 -68q108 0 173 111q49 84 49 198q0 83 -41 132q-46 56 -127 56q-58 0 -115 -39q-61 -43 -92 -121q-25 -62 -25 -126z" />
<glyph unicode="A" horiz-adv-x="1176" vert-adv-y="1229" d="M-42 0v115h38q56 1 83 30q21 17 53 99l361 1006h-116v115h255l469 -1250h117v-115h-390v115h125l-124 333h-516l-83 -232q-13 -36 -13 -54q0 -47 59 -47h54v-115h-372zM345 542h450l-232 621z" />
<glyph unicode="B" horiz-adv-x="1095" vert-adv-y="1229" d="M125 0v115h113v1135h-113v115h426q154 0 250 -64q142 -94 142 -282q0 -139 -89 -229q-52 -53 -124 -80q111 -28 170 -89q99 -101 99 -251q0 -105 -56 -195q-75 -120 -211 -157q-69 -18 -169 -18h-438zM377 115h152q138 0 212 47q115 73 115 220q0 104 -64 175 q-60 68 -167 82q-41 6 -97 6h-151v-530zM377 754h146q127 0 182 33q92 54 92 208q0 172 -136 232q-54 23 -160 23h-124v-496z" />
<glyph unicode="C" horiz-adv-x="1319" vert-adv-y="1229" d="M66 679q0 319 199 523q181 185 455 185q124 0 228 -40q90 -34 166 -110l19 128h86v-397h-86q-17 118 -82 188q-105 113 -304 113q-227 0 -379 -155q-162 -165 -162 -432q0 -255 166 -416q165 -159 409 -159q188 0 296 110q40 40 50 98q3 16 6 53h86v-220 q-93 -73 -164 -106q-134 -64 -289 -64q-193 0 -364 96q-187 106 -274 300q-62 137 -62 305z" />
<glyph unicode="D" horiz-adv-x="1371" vert-adv-y="1229" d="M125 0v115h113v1135h-113v115h474q267 0 442 -123q133 -94 200 -242q65 -141 65 -313q0 -208 -95 -372q-110 -190 -319 -270q-116 -45 -284 -45h-483zM377 115h163q145 0 224 19q201 48 315 235q81 133 81 314q0 321 -227 473q-140 94 -349 94h-207v-1135z" />
<glyph unicode="E" horiz-adv-x="1043" vert-adv-y="1229" d="M125 0v115h113v1135h-113v115h816v-352h-81l-41 237h-442v-486h351v-108h-351v-541h442l41 253h81v-368h-816z" />
<glyph unicode="F" horiz-adv-x="960" vert-adv-y="1229" d="M125 0v115h114v1135h-114v115h785v-347h-77l-42 232h-413v-487h316v-110h-316v-538h112v-115h-365z" />
<glyph unicode="G" horiz-adv-x="1411" vert-adv-y="1229" d="M88 685q0 224 106 399q107 175 299 253q123 50 258 50q167 0 301 -68q46 -23 104 -79l19 125h86v-416h-105q-12 99 -38 146q-41 75 -134 122q-100 50 -223 50q-144 0 -265 -70q-138 -79 -207 -240q-56 -129 -56 -271q0 -251 157 -416q154 -163 398 -163q209 0 319 112 q77 78 77 218q0 57 -21 78q-19 18 -64 18h-117v104h329v-637h-80l-33 156q-165 -178 -439 -178q-194 0 -358 101q-169 104 -251 293q-62 144 -62 313z" />
<glyph unicode="H" horiz-adv-x="1419" vert-adv-y="1229" d="M125 0v115h117v1135h-117v115h370v-115h-114v-473h661v473h-111v115h362v-115h-112v-1135h112v-115h-362v115h111v544h-661v-544h114v-115h-370z" />
<glyph unicode="I" horiz-adv-x="645" vert-adv-y="1229" d="M139 0v115h114v1135h-114v115h367v-115h-114v-1135h114v-115h-367z" />
<glyph unicode="J" horiz-adv-x="810" vert-adv-y="1229" d="M-3 0v327h100q10 -78 29 -120q23 -51 71 -79q37 -21 82 -21q79 0 124 58q41 52 41 177v908h-112v115h363v-115h-112v-952q0 -142 -62 -222q-76 -98 -211 -98q-132 0 -213 102l-18 -80h-82z" />
<glyph unicode="K" horiz-adv-x="1195" vert-adv-y="1229" d="M125 0v115h113v1135h-113v115h364v-115h-113v-526l481 473q21 21 21 32q0 9 -9 15q-8 5 -52 6h-49v115h408v-115h-50q-48 0 -79 -15q-25 -11 -70 -54l-468 -457l571 -609h124v-115h-205l-623 669v-554h113v-115h-364z" />
<glyph unicode="L" horiz-adv-x="938" vert-adv-y="1229" d="M125 0v115h113v1135h-113v115h367v-115h-115v-1135h379l47 276h78v-391h-756z" />
<glyph unicode="M" horiz-adv-x="1724" vert-adv-y="1229" d="M125 0v115q81 0 101 21q15 19 15 103v1011h-103v115h236l490 -1088l484 1088h250v-115h-108v-1135h108v-115h-365v115h117v1021l-495 -1108h-23l-489 1090v-879q0 -84 15 -103q20 -21 102 -21v-115h-335z" />
<glyph unicode="N" horiz-adv-x="1491" vert-adv-y="1229" d="M125 0v115q81 0 101 21q15 19 15 103v1011h-112v115h217l801 -1115v876q0 84 -15 103q-20 21 -102 21v115h335v-115q-81 0 -101 -21q-15 -19 -15 -103v-1126h-83l-823 1141v-902q0 -84 15 -103q20 -21 102 -21v-115h-335z" />
<glyph unicode="O" horiz-adv-x="1531" vert-adv-y="1229" d="M65 680q0 211 113 386q113 177 308 263q129 58 286 58q251 0 449 -171q128 -111 192 -267q52 -128 52 -267q0 -297 -216 -507q-204 -197 -485 -197q-282 0 -484 197q-112 110 -168 255q-47 120 -47 250zM211 680q0 -150 74 -285q84 -153 237 -230q115 -58 243 -58 q227 0 388 164q90 92 134 218q32 93 32 189q0 161 -81 301q-88 155 -244 229q-106 50 -235 50q-214 0 -372 -156q-92 -91 -139 -217q-37 -101 -37 -205z" />
<glyph unicode="P" horiz-adv-x="983" vert-adv-y="1229" d="M125 0v115h112v1135h-112v115h389q176 0 273 -59q84 -52 129 -139q43 -80 43 -179q0 -125 -67 -223q-111 -164 -369 -164h-147v-486h112v-115h-363zM376 717h104q141 0 211 39q122 67 122 224q0 150 -110 223q-71 47 -196 47h-131v-533z" />
<glyph unicode="Q" horiz-adv-x="1538" vert-adv-y="1229" d="M66 686q0 297 213 503q205 198 485 198q227 0 413 -132q160 -113 236 -290q55 -129 55 -271q0 -229 -126 -401q-62 -82 -193 -178h316v-115h-531q-7 0 -40 -10q-42 -12 -133 -12q-182 0 -348 100q-181 108 -274 293q-73 147 -73 315zM209 684q0 -153 81 -295 q82 -145 228 -220q119 -62 249 -62q154 0 289 84q137 86 210 239q59 125 59 253q0 166 -90 313q-84 138 -227 207q-114 55 -247 55q-143 0 -273 -76q-136 -79 -211 -226q-68 -133 -68 -272z" />
<glyph unicode="R" horiz-adv-x="1108" vert-adv-y="1229" d="M125 0v115h111v1135h-111v115h414q161 0 253 -52q81 -47 125 -133q38 -76 38 -165q0 -140 -82 -245q-90 -113 -265 -132l370 -523h118v-115h-205l-440 630h-76v-515h109v-115h-359zM375 722h109q141 0 211 43q118 73 118 230q0 156 -121 222q-62 33 -172 33h-145v-528z " />
<glyph unicode="S" horiz-adv-x="984" vert-adv-y="1229" d="M95 0v401h99q7 -69 19 -107q31 -94 121 -151q72 -46 154 -46q115 0 190 80q67 72 67 175q0 86 -49 149q-29 38 -68 59q-62 36 -161 77q-208 85 -285 174q-76 86 -76 214q0 168 113 272q97 90 237 90q168 0 291 -141l21 119h78v-392h-99q-17 126 -67 194q-33 44 -87 71 q-59 30 -123 30q-89 0 -149 -54q-73 -65 -73 -177q0 -92 71 -156q71 -63 241 -136q152 -64 203 -106q125 -102 125 -282q0 -155 -99 -260q-112 -119 -286 -119q-98 0 -178 44q-53 29 -121 97l-28 -119h-81z" />
<glyph unicode="T" horiz-adv-x="1003" vert-adv-y="1229" d="M34 998v367h935v-367h-81l-53 266h-266v-1149h124v-115h-385v115h123v1149h-266l-51 -266h-80z" />
<glyph unicode="U" horiz-adv-x="1359" vert-adv-y="1229" d="M109 1250v115h365v-115h-111v-710q0 -184 53 -271q44 -72 124 -116q84 -46 177 -46q114 0 206 67q100 73 122 214q10 60 10 144v594q-1 84 -15 103q-20 21 -101 21v115h335v-115q-82 0 -102 -21q-15 -19 -15 -103v-628q0 -214 -82 -328q-64 -90 -162 -141 q-100 -51 -217 -51q-161 0 -288 92q-131 96 -164 244q-20 88 -20 182v754h-115z" />
<glyph unicode="V" horiz-adv-x="1146" vert-adv-y="1229" d="M-42 1250v115h386v-115h-128l385 -1027l329 909q23 65 23 82q0 36 -69 36h-52v115h371v-115q-48 0 -77 -8q-37 -12 -60 -47q-14 -21 -33 -71l-421 -1124h-72l-473 1250h-109z" />
<glyph unicode="W" horiz-adv-x="1757" vert-adv-y="1229" d="M-42 1250v115h385v-115h-126l356 -974l290 1089h85l316 -1086l287 845q22 66 22 89q0 17 -10 26q-12 11 -49 11h-63v115h363v-115q-64 0 -87 -14q-46 -30 -86 -151l-374 -1085h-66l-316 1085l-290 -1085h-67l-459 1250h-111z" />
<glyph unicode="X" horiz-adv-x="1140" vert-adv-y="1229" d="M-18 0v115q72 0 103 13q36 17 89 96l318 467l-371 559h-118v115h399v-115h-114l286 -437l228 335q40 59 40 80q0 22 -60 22h-54v115h387v-115q-74 -1 -108 -17q-28 -13 -49 -40q-6 -7 -45 -64l-275 -407l404 -607h116v-115h-392v115h114l-324 486l-249 -371 q-47 -71 -47 -85q0 -30 47 -30h46v-115h-371z" />
<glyph unicode="Y" horiz-adv-x="1075" vert-adv-y="1229" d="M-42 1250v115h386v-115h-117l324 -527l269 423q32 51 32 73q0 31 -58 31h-54v115h379v-115q-76 -2 -115 -24q-27 -16 -73 -86l-330 -517v-508h119v-115h-380v115h122v487l-397 648h-107z" />
<glyph unicode="Z" horiz-adv-x="1083" vert-adv-y="1229" d="M45 0v99l802 1151h-647l-46 -258h-88v373h956v-103l-798 -1147h663l48 269h87v-384h-977z" />
<glyph unicode="[" horiz-adv-x="546" vert-adv-y="1229" d="M137 -343v1708h264v-98h-138v-1512h138v-98h-264z" />
<glyph unicode="\" horiz-adv-x="880" vert-adv-y="1229" d="M96 1502h109l648 -1639h-109z" />
<glyph unicode="]" horiz-adv-x="546" vert-adv-y="1229" d="M145 -245h138v1512h-138v98h264v-1708h-264v98z" />
<glyph unicode="^" vert-adv-y="1229" d="M69 773l363 595h160l363 -595h-135l-310 498l-307 -498h-134z" />
<glyph unicode="_" vert-adv-y="1229" d="M0 -121h1024v-112h-1024v112z" />
<glyph unicode="`" vert-adv-y="1229" d="M287 1304h146l167 -290h-111z" />
<glyph unicode="a" horiz-adv-x="922" vert-adv-y="1229" d="M90 245q0 136 110 215q79 57 188 57q80 0 143 -32q35 -17 85 -67v117q0 94 -61 143q-51 41 -141 41q-76 0 -128 -27q-48 -26 -62 -90h-94v177h23q24 -1 28 -1q15 0 48 9q110 29 200 29q188 0 269 -103q48 -61 48 -149v-455h99v-109h-229v88q-48 -47 -88 -68 q-69 -35 -158 -35q-117 0 -194 68q-86 75 -86 192zM222 252q0 -77 57 -127q53 -46 131 -46q136 0 206 124v98q-49 64 -86 87q-55 34 -124 34q-51 0 -96 -24q-88 -47 -88 -146z" />
<glyph unicode="b" horiz-adv-x="1070" vert-adv-y="1229" d="M63 0v109h107v1147h-107v109h237v-696q61 71 123 104q84 43 183 43q167 0 276 -107q119 -117 119 -306q0 -198 -125 -318q-106 -100 -270 -100q-108 0 -194 46q-58 31 -112 96v-127h-237zM293 393q0 -124 81 -209q88 -91 212 -91q123 0 201 82q83 88 83 225 q0 130 -80 219q-81 89 -212 89q-122 0 -205 -93q-80 -89 -80 -222z" />
<glyph unicode="c" horiz-adv-x="894" vert-adv-y="1229" d="M68 399q0 184 119 306q109 111 276 111q160 0 255 -95l34 80h65v-297h-99q-12 89 -70 138q-72 60 -172 60q-97 0 -171 -60q-101 -82 -101 -233q0 -158 111 -247q78 -62 177 -62q125 0 193 79q28 33 33 103h99v-146q-49 -58 -110 -92q-108 -59 -226 -59q-158 0 -267 90 q-74 61 -112 154q-34 81 -34 170z" />
<glyph unicode="d" horiz-adv-x="1084" vert-adv-y="1229" d="M68 403q0 189 119 306q109 107 276 107q99 0 183 -43q63 -33 124 -104v587h-116v109h246v-1256h107v-109h-237v127q-54 -65 -112 -96q-87 -46 -195 -46q-164 0 -270 100q-125 120 -125 318zM199 401q0 -137 83 -226q78 -82 201 -82q124 0 212 91q82 85 82 208 q0 134 -80 223q-85 93 -214 93q-122 0 -204 -89q-80 -88 -80 -218z" />
<glyph unicode="e" horiz-adv-x="893" vert-adv-y="1229" d="M68 403q0 170 102 287q110 126 291 126q148 0 244 -88q110 -101 119 -273q1 -18 1 -69h-622q4 -123 71 -207q75 -94 214 -94q128 0 190 73q22 27 25 96h122v-121q-38 -61 -108 -96q-103 -52 -233 -52q-173 0 -284 102q-132 122 -132 316zM206 477h497q-9 85 -57 148 q-69 91 -185 91q-72 0 -137 -42q-94 -60 -118 -197z" />
<glyph unicode="f" horiz-adv-x="568" vert-adv-y="1229" d="M86 0v109h108v583h-108v109h108v334q0 116 54 180q56 67 165 67q23 0 54 -1v-125h-35q-54 -1 -79 -27q-28 -36 -29 -126v-302h143v-109h-143v-583h126v-109h-364z" />
<glyph unicode="g" horiz-adv-x="1082" vert-adv-y="1229" d="M68 403q0 175 109 294t281 119q117 0 205 -50q50 -29 102 -92v127h235v-109h-110v-657q0 -97 -14 -150q-41 -150 -168 -212q-101 -50 -233 -50q-182 0 -281 94q-57 55 -84 127q-11 32 -23 95h124q45 -210 272 -210q165 0 245 119q37 55 37 151v145q-61 -65 -114 -95 q-88 -50 -192 -50q-169 0 -279 113q-112 115 -112 291zM201 406q0 -125 80 -211q84 -89 204 -89q123 0 207 90q79 84 79 209q0 129 -79 212q-86 90 -210 90q-117 0 -201 -90q-80 -86 -80 -211z" />
<glyph unicode="h" horiz-adv-x="1043" vert-adv-y="1229" d="M93 0v109h108v1147h-108v109h238v-690q100 141 258 141q145 0 228 -103q52 -65 52 -182v-422h98v-109h-228v478q0 109 -38 158q-52 68 -151 68q-115 0 -182 -101q-37 -56 -37 -161v-333h105v-109h-343z" />
<glyph unicode="i" horiz-adv-x="527" vert-adv-y="1229" d="M96 0v109h110v583h-110v109h240v-692h107v-109h-347zM181 1159q0 39 27 65q27 27 66 27q37 0 63 -27q27 -26 27 -64q0 -39 -27 -65q-27 -27 -64 -27q-38 0 -65 27t-27 64z" />
<glyph unicode="j" horiz-adv-x="509" vert-adv-y="1229" d="M83 -251q63 12 96 65q24 36 25 124v754h-107v109h237v-876q-1 -129 -61 -202q-69 -84 -190 -105v131zM179 1159q0 39 27 65q27 27 66 27q37 0 63 -27q27 -26 27 -64q0 -39 -27 -65q-27 -27 -64 -27q-38 0 -65 27t-27 64z" />
<glyph unicode="k" horiz-adv-x="859" vert-adv-y="1229" d="M76 1256v109h241v-950l218 219q46 45 46 59q0 12 -28 12h-67v96h339v-96q-44 0 -73 -8q-45 -15 -104 -74l-208 -208l289 -306h106v-109h-187l-331 355v-246h96v-109h-334v109h106v1147h-109z" />
<glyph unicode="l" horiz-adv-x="491" vert-adv-y="1229" d="M76 0v109h106v1147h-106v109h236v-1256h107v-109h-343z" />
<glyph unicode="m" horiz-adv-x="1511" vert-adv-y="1229" d="M91 0v109h105v580h-105v112h235v-115q47 67 95 95q62 35 151 35q100 0 163 -45q40 -29 72 -96q49 73 104 102q71 39 162 39q155 0 224 -116q39 -65 39 -177v-414h98v-109h-228v466q0 113 -32 162q-51 80 -139 80q-67 0 -123 -46q-80 -66 -80 -231v-322h103v-109h-234v468 q0 113 -28 164q-21 39 -64 59q-37 18 -79 18q-106 0 -165 -96q-39 -63 -39 -195v-309h106v-109h-341z" />
<glyph unicode="n" horiz-adv-x="1041" vert-adv-y="1229" d="M91 0v109h108v583h-108v109h238v-126q100 141 258 141q145 0 228 -103q52 -65 52 -181v-423h98v-109h-228v478q0 226 -189 226q-115 0 -182 -101q-37 -56 -37 -161v-333h105v-109h-343z" />
<glyph unicode="o" horiz-adv-x="974" vert-adv-y="1229" d="M68 400q0 181 125 298q125 118 299 118q166 0 290 -118q124 -119 124 -297q0 -177 -124 -297q-124 -119 -295 -119t-294 119q-125 120 -125 296zM203 400q0 -125 83 -210q84 -87 201 -87t201 87q83 85 83 209q0 128 -83 211q-86 87 -204 87q-113 0 -198 -87 q-83 -85 -83 -210z" />
<glyph unicode="p" horiz-adv-x="1081" vert-adv-y="1229" d="M74 -243h107v935h-107v109h237v-127q119 142 307 142q164 0 270 -100q125 -120 125 -318q0 -189 -119 -306q-109 -107 -276 -107q-99 0 -183 44q-62 32 -124 103v-375h108v-109h-345v109zM304 408q0 -132 80 -222q84 -93 210 -93t208 89q80 88 80 217q0 137 -83 227 q-76 82 -205 82q-119 0 -208 -91q-82 -85 -82 -209z" />
<glyph unicode="q" horiz-adv-x="1081" vert-adv-y="1229" d="M68 398q0 198 125 318q106 100 270 100q189 0 307 -142v127h237v-109h-107v-935h107v-109h-345v109h108v375q-62 -71 -124 -103q-84 -44 -183 -44q-167 0 -276 107q-119 117 -119 306zM199 400q0 -129 80 -218q82 -89 208 -89t210 93q80 89 80 221q0 127 -82 210 q-91 91 -216 91q-120 0 -197 -82q-83 -89 -83 -226z" />
<glyph unicode="r" horiz-adv-x="633" vert-adv-y="1229" d="M91 0v109h109v583h-109v109h237v-158q83 180 271 180h10v-131q-34 5 -57 5q-113 0 -175 -90q-49 -72 -49 -207v-291h109v-109h-346z" />
<glyph unicode="s" horiz-adv-x="745" vert-adv-y="1229" d="M89 0v262h85q12 -73 45 -114q57 -70 159 -70q78 0 116 42q33 37 33 91q0 63 -42 93q-33 24 -132 52q-120 35 -163 62q-90 56 -90 167q0 122 94 187q65 44 163 44q74 0 128 -29q26 -14 69 -51l14 65h65v-242h-79q-13 62 -39 96q-52 68 -141 68q-63 0 -103 -37 q-37 -34 -37 -84q0 -56 51 -90q35 -22 118 -44q122 -31 176 -70q85 -61 85 -176t-85 -182q-71 -55 -180 -55q-122 0 -225 81l-21 -66h-64z" />
<glyph unicode="t" horiz-adv-x="558" vert-adv-y="1229" d="M82 692v109h106v224l130 60v-284h152v-109h-152v-481q0 -111 70 -111q34 0 82 32v-115q-65 -32 -118 -32q-81 0 -127 48q-37 39 -37 116v543h-106z" />
<glyph unicode="u" horiz-adv-x="1018" vert-adv-y="1229" d="M72 692v109h227v-478q0 -109 38 -158q53 -68 151 -68q117 0 183 101q37 56 37 161v333h-105v109h235v-692h108v-109h-238v126q-100 -141 -259 -141q-145 0 -228 103q-52 65 -52 181v423h-97z" />
<glyph unicode="v" horiz-adv-x="877" vert-adv-y="1229" d="M-21 692v109h353v-109h-104l230 -515l189 430q14 31 14 49q0 19 -9 28q-8 8 -58 8h-27v109h315v-109h-14q-57 0 -79 -14q-21 -16 -55 -95l-264 -583h-66l-321 692h-104z" />
<glyph unicode="w" horiz-adv-x="1314" vert-adv-y="1229" d="M-21 692v109h358v-109h-114l205 -498l209 607h77l215 -601l160 402q19 46 19 59q0 31 -55 31h-42v109h309v-109h-14q-56 -1 -78 -22q-20 -23 -50 -98l-247 -572h-71l-209 587l-198 -587h-74l-293 692h-107z" />
<glyph unicode="x" horiz-adv-x="902" vert-adv-y="1229" d="M5 0v109q57 1 80 8q43 13 86 63l197 230l-242 282h-100v109h355v-109h-89l182 -216l128 156q27 32 27 42q0 18 -34 18h-39v109h307v-109h-33q-73 -1 -142 -90l-156 -189l261 -304h91v-109h-349v109h91l-200 238l-151 -182q-25 -30 -25 -39q0 -17 60 -17h25v-109h-330z " />
<glyph unicode="y" horiz-adv-x="899" vert-adv-y="1229" d="M-21 692v109h365v-109h-118l235 -527l207 469q7 16 7 28q0 30 -72 30h-28v109h343v-109h-27q-57 -1 -84 -25q-17 -17 -41 -71l-383 -839h189v-109h-357l177 384l-312 660h-101z" />
<glyph unicode="z" horiz-adv-x="760" vert-adv-y="1229" d="M56 0v109l471 583h-353l-40 -151h-64v260h618v-109l-473 -583h363l45 192h65v-301h-632z" />
<glyph unicode="{" horiz-adv-x="534" vert-adv-y="1229" d="M13 463v98q53 15 83 51q35 44 35 148v299q0 163 55 230q40 50 109 65q56 11 141 11h14v-98h-21q-87 2 -130 -42q-33 -38 -36 -82q-6 -55 -6 -78v-319q0 -101 -24 -147q-29 -58 -88 -87q64 -31 92 -97q20 -46 20 -137v-319q3 -101 16 -120q39 -85 156 -82h21v-98h-14 q-120 -1 -176 22q-92 36 -116 145q-13 51 -13 139v299q0 104 -35 148q-30 36 -83 51z" />
<glyph unicode="|" vert-adv-y="1229" d="M442 -341v1706h140v-1706h-140z" />
<glyph unicode="}" horiz-adv-x="534" vert-adv-y="1229" d="M84 -243h21q87 -2 130 42q33 38 36 82q6 55 6 78v319q0 101 24 147q29 58 88 87q-64 32 -92 97q-20 47 -20 137v319q-3 101 -16 120q-39 85 -156 82h-21v98h14q120 1 176 -22q93 -36 116 -145q13 -52 13 -139v-299q0 -104 35 -148q30 -36 83 -51v-98q-53 -15 -83 -51 q-35 -44 -35 -148v-299q-1 -164 -55 -230q-40 -50 -109 -65q-56 -11 -141 -11h-14v98z" />
<glyph unicode="~" horiz-adv-x="1365" vert-adv-y="1229" d="M194 1256q107 223 273 223q78 0 239 -82q102 -52 135 -62q33 -9 60 -9q108 0 195 157l77 -60q-45 -98 -107 -154q-77 -68 -176 -68q-45 0 -112 26q-23 8 -145 70q-109 56 -174 56q-99 0 -188 -157z" />
<glyph horiz-adv-x="1446" vert-adv-y="1229" d="M14 742l49 120h169q45 161 149 284t247 188q140 64 298 64q284 0 506 -213l-51 -122q-185 215 -457 215q-257 0 -436 -191q-91 -97 -131 -225h780h159l-49 -120h-915q-2 -37 -2 -58t2 -60h866l-50 -120h-791q28 -94 95 -183q77 -101 189 -161q132 -72 282 -72 q275 0 458 215v-170q-213 -166 -455 -166q-223 0 -406 126q-215 148 -288 411h-216l49 120h146q-2 40 -2 61q0 24 2 57h-197z" />
<glyph unicode="&#xa0;" horiz-adv-x="614" vert-adv-y="1229" />
<glyph unicode="&#xa1;" horiz-adv-x="512" vert-adv-y="1229" d="M127 -569l57 1095h90v-1095h-147zM137 729q0 36 25 61q26 25 63 25q34 0 59 -25q25 -26 25 -61t-25 -61q-25 -25 -60 -25q-37 0 -62 25t-25 61z" />
<glyph unicode="&#xa2;" horiz-adv-x="1010" vert-adv-y="1229" d="M153 646q0 199 133 309q73 60 209 85v131h84v-131q118 -18 190 -96l30 72h65v-276h-95q-13 70 -32 99q-32 48 -81 71q-24 11 -77 22v-576q100 13 155 74q27 31 31 59q2 10 4 38h95v-141q-61 -56 -114 -86q-73 -38 -171 -49v-132h-84v132q-83 14 -127 35q-102 48 -160 147 q-55 93 -55 213zM276 647q0 -132 94 -218q47 -42 125 -67v569q-87 -19 -137 -72q-82 -86 -82 -212z" />
<glyph unicode="&#xa3;" horiz-adv-x="1010" vert-adv-y="1229" d="M34 584v83h164q-38 70 -54 110q-25 61 -25 128q0 110 55 208q58 105 169 156q88 41 191 41q122 0 219 -56q58 -34 116 -105l29 109h78v-374h-92q-10 131 -66 202q-92 118 -261 118q-119 0 -203 -72q-101 -88 -101 -221q0 -72 38 -146q16 -32 60 -98h323v-83h-278 q50 -90 50 -160q0 -81 -60 -168q92 -8 198 -86q96 -68 153 -68q68 0 109 60q33 49 38 132h106q-7 -149 -68 -224q-72 -89 -189 -89q-69 0 -131 35q-25 14 -83 53t-88 53q-51 25 -99 25q-78 0 -126 -65q-24 -32 -32 -83h-102q27 193 202 257q55 74 55 134q0 67 -90 194h-205z " />
<glyph unicode="&#xa4;" horiz-adv-x="1401" vert-adv-y="1229" d="M141 1177l77 77l190 -190q54 37 91 57q93 48 201 48q119 0 223 -61q26 -15 66 -44l192 189l76 -76l-189 -188q103 -141 103 -291q0 -115 -58 -219q-15 -26 -43 -67l189 -189l-75 -76l-190 188q-135 -104 -287 -104q-143 0 -298 104l-187 -188l-76 76l185 189 q-102 134 -102 290q0 114 61 219q15 26 43 67zM355 701q0 -144 101 -246q102 -102 245 -102q142 0 244 102q101 102 101 245q0 147 -101 247q-103 103 -248 103q-140 0 -242 -103q-100 -102 -100 -246z" />
<glyph unicode="&#xa5;" horiz-adv-x="1190" vert-adv-y="1229" d="M14 1250v115h386v-115h-117l324 -527l269 423q32 50 32 73q0 31 -58 31h-54v115h379v-115q-76 -2 -114 -24q-29 -17 -73 -86l-208 -323h257v-99h-319l-61 -95v-79h366v-99h-366v-330h119v-115h-380v115h122v330h-352v99h352v58l-71 116h-294v99h233l-265 433h-107z" />
<glyph unicode="&#xa6;" vert-adv-y="1229" d="M442 314h140v-655h-140v655zM442 686v679h140v-679h-140z" />
<glyph unicode="&#xa7;" horiz-adv-x="960" vert-adv-y="1229" d="M69 628q0 159 173 255q-50 53 -68 88q-25 51 -25 108q0 122 109 222q88 80 220 80q135 0 256 -110l22 88h81v-348h-81q-29 86 -42 114.5t-39 57.5q-80 91 -194 91q-82 0 -136 -53q-57 -55 -57 -134q0 -73 50 -123q27 -26 110 -62q32 -13 200 -94q157 -75 198 -129 q44 -59 44 -133q0 -72 -43 -140q-33 -53 -113 -113q59 -42 85 -80q43 -65 43 -142q0 -115 -92 -203q-110 -106 -274 -106q-96 0 -178 37q-56 26 -124 87l-14 -91h-80v375h80q19 -116 80 -193q77 -99 224 -99q108 0 174 52t66 133q0 61 -42 105q-33 34 -133 78 q-289 128 -358 175q-67 45 -94 92q-28 50 -28 115zM212 650q0 -83 63 -133q32 -26 116 -64l242 -110q118 81 118 169q0 65 -45 114q-34 36 -142 86l-237 111q-115 -66 -115 -173z" />
<glyph unicode="&#xa8;" horiz-adv-x="1010" vert-adv-y="1229" d="M273 1160q0 35 24 58q24 24 59 24q33 0 57 -24t24 -58t-24 -58t-58 -24t-58 24t-24 58zM573 1160q0 35 24 58q24 24 59 24q33 0 57 -24t24 -58t-24 -58t-58 -24t-58 24t-24 58z" />
<glyph unicode="&#xa9;" horiz-adv-x="1630" vert-adv-y="1229" d="M98 688q0 307 238 522q202 182 491 182q183 0 346 -95q168 -98 263 -260q96 -164 96 -354t-96 -355t-263 -260q-166 -95 -358 -95t-358 95q-168 96 -263 260q-96 166 -96 360zM195 683q0 -168 83 -313t227 -229t310 -84t310 84q145 84 227 229q83 146 83 317 q0 271 -205 460q-175 161 -425 161q-159 0 -300 -84q-144 -86 -227 -229q-83 -144 -83 -312zM416 680q0 182 118 298q108 106 271 106q142 0 226 -77l10 65h63v-236h-63q-23 168 -220 168q-130 0 -216 -85q-93 -90 -93 -237q0 -140 95 -228q94 -87 234 -87q107 0 168 59 q26 26 32 87h63v-134q-58 -43 -100 -62q-79 -36 -172 -36q-114 0 -215 55q-112 60 -164 170q-37 78 -37 174z" />
<glyph unicode="&#xaa;" horiz-adv-x="610" vert-adv-y="1229" d="M65 697q0 84 72 133q51 34 119 34q72 0 135 -49v53q0 103 -118 103q-97 0 -110 -70h-73v119h23q12 -1 16 -1q9 0 29 5q68 18 126 18q119 0 172 -63q32 -39 32 -93v-262h65v-78h-162v42q-63 -51 -147 -51q-73 0 -122 41q-57 47 -57 119zM160 701q0 -42 32 -68 q33 -27 79 -27q79 0 120 68v51q-54 70 -123 70q-30 0 -57 -14q-51 -26 -51 -80z" />
<glyph unicode="&#xab;" horiz-adv-x="696" vert-adv-y="1229" d="M90 410l184 356h126l-185 -356l185 -356h-126zM338 410l184 356h126l-184 -356l184 -356h-126z" />
<glyph unicode="&#xac;" vert-adv-y="1229" d="M68 441v123h887v-564h-136v441h-751z" />
<glyph unicode="&#xad;" horiz-adv-x="452" vert-adv-y="1229" d="M0 373v107h452v-107h-452z" />
<glyph unicode="&#xae;" horiz-adv-x="1630" vert-adv-y="1229" d="M98 688q0 307 238 522q202 182 491 182q183 0 346 -95q168 -98 263 -260q96 -164 96 -354t-96 -355t-263 -260q-166 -95 -358 -95t-358 95q-168 96 -263 260q-96 166 -96 360zM195 683q0 -168 83 -313t227 -229t310 -84t310 84q145 84 227 229q83 146 83 317 q0 271 -205 460q-175 161 -425 161q-159 0 -300 -84q-144 -86 -227 -229q-83 -144 -83 -312zM544 294v78h66v622h-66v78h249q96 0 151 -30q99 -54 99 -173q0 -112 -86 -175q-40 -30 -111 -41l208 -281h72v-78h-130l-258 353h-33v-275h63v-78h-224zM705 712h56q185 0 185 146 q0 136 -164 136h-77v-282z" />
<glyph unicode="&#xaf;" vert-adv-y="1229" d="M0 1487v112h1024v-112h-1024z" />
<glyph unicode="&#xb0;" vert-adv-y="1229" d="M227 1100q0 133 96 214q85 71 195 71q114 0 199 -88q80 -82 80 -196q0 -120 -84 -204q-82 -83 -199 -83q-127 0 -213 93q-74 81 -74 193zM338 1100q0 -66 43 -116q51 -60 131 -60q69 0 121 49q53 52 53 124q0 74 -50 125q-53 53 -128 53q-64 0 -113 -45q-57 -54 -57 -130 z" />
<glyph unicode="&#xb1;" vert-adv-y="1229" d="M102 0v112h819v-112h-819zM102 589v112h354v354h112v-354h353v-112h-353v-353h-112v353h-354z" />
<glyph unicode="&#xb2;" horiz-adv-x="661" vert-adv-y="1229" d="M71 1075q0 101 74 166q71 61 178 61q114 0 181 -63q69 -65 69 -170q0 -120 -117 -249q-73 -81 -239 -223h191q78 1 89 21q8 15 11 88h68v-190h-488v77q190 158 267 241q121 131 121 232q0 74 -47 117q-43 38 -114 38q-68 0 -112 -42q-43 -41 -43 -98q0 -86 97 -139 l-58 -71q-128 83 -128 204z" />
<glyph unicode="&#xb3;" horiz-adv-x="662" vert-adv-y="1229" d="M81 568v99q106 -83 198 -83q86 0 137 57q44 48 44 119t-51 116q-47 42 -117 42q-32 0 -81 -14v66l227 242h-195q-56 0 -76 -11q-13 -9 -17.5 -25.5t-7.5 -72.5h-61v187h470v-74l-217 -231q74 -3 122 -30q108 -61 108 -195q0 -106 -71 -177q-79 -79 -203 -79 q-96 0 -209 64z" />
<glyph unicode="&#xb4;" vert-adv-y="1229" d="M424 1014l167 290h146l-202 -290h-111z" />
<glyph unicode="&#xb5;" horiz-adv-x="1018" vert-adv-y="1229" d="M170 -352v1153h130v-478q0 -109 38 -158q52 -68 151 -68q116 0 183 101q37 56 37 161v442h130v-692h107v-109h-237v126q-101 -141 -259 -141q-81 0 -150 37v-374h-130z" />
<glyph unicode="&#xb6;" horiz-adv-x="974" vert-adv-y="1229" d="M41 999q0 126 70 222q106 144 372 144h450v-115h-94v-1482h-123v1482h-140v-1482h-123v872q-111 0 -178 24q-110 38 -171 126q-63 92 -63 209z" />
<glyph unicode="&#xb7;" horiz-adv-x="478" vert-adv-y="1229" d="M153 408q0 35 25 61q25 25 61 25t61 -25t25 -61q0 -35 -25 -61q-25 -25 -62 -25q-36 0 -60 25q-25 27 -25 61z" />
<glyph unicode="&#xb8;" horiz-adv-x="1047" vert-adv-y="1229" d="M393 -347l110 266h150l-173 -266h-87z" />
<glyph unicode="&#xb9;" horiz-adv-x="670" vert-adv-y="1229" d="M185 1163v72q138 28 191 79v-717h90v-81h-273v81h87v566h-95z" />
<glyph unicode="&#xba;" horiz-adv-x="640" vert-adv-y="1229" d="M52 789q0 110 80 181q81 71 191 71q106 0 185 -71q80 -72 80 -181q0 -108 -80 -181q-79 -71 -188 -71t-188 71q-80 73 -80 181zM152 789q0 -70 48 -118q50 -50 120 -50q69 0 120 50q48 48 48 118q0 72 -48 118q-52 50 -122 50q-68 0 -118 -50q-48 -48 -48 -118z" />
<glyph unicode="&#xbb;" horiz-adv-x="729" vert-adv-y="1229" d="M87 54l184 356l-184 356h126l184 -356l-184 -356h-126zM335 54l185 356l-185 356h126l184 -356l-184 -356h-126z" />
<glyph unicode="&#xbc;" horiz-adv-x="1568" vert-adv-y="1229" d="M185 1163v72q138 28 191 79v-717h90v-81h-273v81h87v566h-95zM291 0l927 1290h93l-927 -1290h-93zM977 236v68l310 471h91v-466h123v-73h-123v-155h97v-81h-288v81h97v155h-307zM1066 309h218v331z" />
<glyph unicode="&#xbd;" horiz-adv-x="1574" vert-adv-y="1229" d="M185 1163v72q138 28 191 79v-717h90v-81h-273v81h87v566h-95zM244 0l928 1290h93l-928 -1290h-93zM985 560q0 100 74 165q71 61 178 61q114 0 180 -63q69 -65 69 -169q0 -121 -117 -250q-69 -76 -239 -223h192q77 0 88 21q8 15 11 89h68v-191h-487v77q189 158 266 242 q121 130 121 231q0 74 -47 117q-43 38 -113 38q-68 0 -112 -42q-43 -41 -43 -98q0 -86 96 -138l-57 -71q-128 83 -128 204z" />
<glyph unicode="&#xbe;" horiz-adv-x="1571" vert-adv-y="1229" d="M81 568v99q106 -83 198 -83q86 0 137 57q44 48 44 119t-51 116q-47 42 -117 42q-32 0 -81 -14v66l227 242h-195q-56 0 -76 -11q-13 -9 -17.5 -25.5t-7.5 -72.5h-61v187h470v-74l-217 -231q74 -3 122 -30q108 -61 108 -195q0 -106 -71 -177q-79 -79 -203 -79 q-96 0 -209 64zM302 0l927 1290h93l-928 -1290h-92zM980 236v68l309 471h91v-466h123v-73h-123v-155h98v-81h-288v81h96v155h-306zM1069 309h217v331z" />
<glyph unicode="&#xbf;" horiz-adv-x="868" vert-adv-y="1229" d="M80 -296q0 99 69 185q53 67 179 146q110 69 151 113q47 50 47 111q0 48 -30 88q-42 56 -131 56q-44 0 -98 -26v111q74 22 126 22q129 0 205 -76q69 -69 69 -175t-74 -179q-43 -43 -168 -123q-108 -69 -148 -105q-61 -56 -61 -129q0 -79 60 -135q58 -53 148 -53 q137 0 188 135q19 51 19 139h108v-386h-80l-28 97q-101 -113 -249 -113q-139 0 -224 97q-78 90 -78 200zM345 730q0 36 25 61q26 25 63 25q34 0 59 -25q25 -26 25 -61t-25 -61q-24 -25 -60 -25q-37 0 -62 25t-25 61z" />
<glyph unicode="&#xc0;" horiz-adv-x="1176" vert-adv-y="1229" d="M-42 0v115h38q56 1 83 30q21 17 53 99l361 1006h-116v115h255l469 -1250h117v-115h-390v115h125l-124 333h-516l-83 -232q-13 -36 -13 -54q0 -47 59 -47h54v-115h-372zM322 1782h146l167 -290h-111zM345 542h450l-232 621z" />
<glyph unicode="&#xc1;" horiz-adv-x="1176" vert-adv-y="1229" d="M-42 0v115h38q56 1 83 30q21 17 53 99l361 1006h-116v115h255l469 -1250h117v-115h-390v115h125l-124 333h-516l-83 -232q-13 -36 -13 -54q0 -47 59 -47h54v-115h-372zM345 542h450l-232 621zM500 1492l167 290h146l-202 -290h-111z" />
<glyph unicode="&#xc2;" horiz-adv-x="1176" vert-adv-y="1229" d="M-42 0v115h38q56 1 83 30q21 17 53 99l361 1006h-116v115h255l469 -1250h117v-115h-390v115h125l-124 333h-516l-83 -232q-13 -36 -13 -54q0 -47 59 -47h54v-115h-372zM320 1494l215 281h87l207 -281h-114l-139 184l-139 -184h-117zM345 542h450l-232 621z" />
<glyph unicode="&#xc3;" horiz-adv-x="1176" vert-adv-y="1229" d="M-42 0v115h38q56 1 83 30q21 17 53 99l361 1006h-116v115h255l469 -1250h117v-115h-390v115h125l-124 333h-516l-83 -232q-13 -36 -13 -54q0 -47 59 -47h54v-115h-372zM306 1555q4 74 31 117q43 66 118 66q45 0 114 -49q64 -47 99 -47q46 0 53 75h95q-1 -68 -31 -117 q-40 -64 -107 -64q-49 0 -111 43q-50 35 -58 40q-24 16 -48 16q-21 0 -38 -19q-18 -20 -22 -61h-95zM345 542h450l-232 621z" />
<glyph unicode="&#xc4;" horiz-adv-x="1176" vert-adv-y="1229" d="M-42 0v115h38q56 1 83 30q21 17 53 99l361 1006h-116v115h255l469 -1250h117v-115h-390v115h125l-124 333h-516l-83 -232q-13 -36 -13 -54q0 -47 59 -47h54v-115h-372zM342 1637q0 35 24 58q25 24 59 24q33 0 57 -24t24 -58t-24 -58t-58 -24t-58 24t-24 58zM345 542h450 l-232 621zM642 1637q0 35 24 58q25 24 59 24q33 0 57 -24t24 -58t-24 -58t-58 -24t-58 24t-24 58z" />
<glyph unicode="&#xc5;" horiz-adv-x="1176" vert-adv-y="1229" d="M-42 0v115h38q56 1 83 30q21 17 53 99l361 1006h-116v115h255l469 -1250h117v-115h-390v115h125l-124 333h-516l-83 -232q-13 -36 -13 -54q0 -47 59 -47h54v-115h-372zM345 542h450l-232 621zM397 1664q0 75 52 126q53 52 128 52q71 0 123 -52t52 -126q0 -73 -52 -125 t-125 -52q-74 0 -126 52t-52 125zM471 1665q0 -43 30 -74q31 -30 74 -30q42 0 73 30q30 31 30 73q0 44 -30 74q-31 30 -75 30q-41 0 -72 -30q-30 -30 -30 -73z" />
<glyph unicode="&#xc6;" horiz-adv-x="1573" vert-adv-y="1229" d="M-41 0v115q55 3 75 11q44 11 114 140l511 984h-129v115h942v-354h-82l-41 239h-444v-484h358v-104h-358v-547h444l41 252h82v-367h-813v115h107v357h-402l-142 -272q-18 -33 -18 -51q0 -34 55 -34h52v-115h-352zM414 565h352v685z" />
<glyph unicode="&#xc7;" horiz-adv-x="1319" vert-adv-y="1229" d="M66 679q0 319 199 523q181 185 455 185q124 0 228 -40q90 -34 166 -110l19 128h86v-397h-86q-17 118 -82 188q-105 113 -304 113q-227 0 -379 -155q-162 -165 -162 -432q0 -255 166 -416q165 -159 409 -159q188 0 296 110q40 40 50 98q3 16 6 53h86v-220 q-93 -73 -164 -106q-134 -64 -289 -64q-193 0 -364 96q-187 106 -274 300q-62 137 -62 305zM598 -347l110 266h150l-173 -266h-87z" />
<glyph unicode="&#xc8;" horiz-adv-x="1043" vert-adv-y="1229" d="M125 0v115h113v1135h-113v115h816v-352h-81l-41 237h-442v-486h351v-108h-351v-541h442l41 253h81v-368h-816zM351 1782h146l167 -290h-111z" />
<glyph unicode="&#xc9;" horiz-adv-x="1043" vert-adv-y="1229" d="M125 0v115h113v1135h-113v115h816v-352h-81l-41 237h-442v-486h351v-108h-351v-541h442l41 253h81v-368h-816zM487 1492l167 290h146l-202 -290h-111z" />
<glyph unicode="&#xca;" horiz-adv-x="1043" vert-adv-y="1229" d="M125 0v115h113v1135h-113v115h816v-352h-81l-41 237h-442v-486h351v-108h-351v-541h442l41 253h81v-368h-816zM321 1494l215 281h87l207 -281h-114l-139 184l-139 -184h-117z" />
<glyph unicode="&#xcb;" horiz-adv-x="1043" vert-adv-y="1229" d="M125 0v115h113v1135h-113v115h816v-352h-81l-41 237h-442v-486h351v-108h-351v-541h442l41 253h81v-368h-816zM343 1637q0 35 24 58q25 24 59 24q33 0 57 -24t24 -58t-24 -58t-58 -24t-58 24t-24 58zM643 1637q0 35 24 58q25 24 59 24q33 0 57 -24t24 -58t-24 -58 t-58 -24t-58 24t-24 58z" />
<glyph unicode="&#xcc;" horiz-adv-x="645" vert-adv-y="1229" d="M98 1782h146l167 -290h-111zM139 0v115h114v1135h-114v115h367v-115h-114v-1135h114v-115h-367z" />
<glyph unicode="&#xcd;" horiz-adv-x="645" vert-adv-y="1229" d="M139 0v115h114v1135h-114v115h367v-115h-114v-1135h114v-115h-367zM234 1492l167 290h146l-202 -290h-111z" />
<glyph unicode="&#xce;" horiz-adv-x="645" vert-adv-y="1229" d="M68 1494l215 281h87l207 -281h-114l-139 184l-139 -184h-117zM139 0v115h114v1135h-114v115h367v-115h-114v-1135h114v-115h-367z" />
<glyph unicode="&#xcf;" horiz-adv-x="645" vert-adv-y="1229" d="M131 1637q0 35 24 58q25 24 59 24q33 0 57 -24t24 -58t-24 -58t-58 -24t-58 24t-24 58zM139 0v115h114v1135h-114v115h367v-115h-114v-1135h114v-115h-367zM349 1637q0 35 24 58q25 24 59 24q33 0 57 -24t24 -58t-24 -58t-58 -24t-58 24t-24 58z" />
<glyph unicode="&#xd0;" horiz-adv-x="1371" vert-adv-y="1229" d="M125 0v115h113v510h-113v115h113v510h-113v115h474q266 0 441 -123q133 -94 200 -242q65 -141 65 -313q0 -209 -95 -372q-110 -190 -319 -270q-116 -45 -283 -45h-483zM377 115h163q145 0 223 19q202 48 315 235q81 133 81 314q0 321 -226 473q-141 94 -349 94h-207v-510 h359v-115h-359v-510z" />
<glyph unicode="&#xd1;" horiz-adv-x="1491" vert-adv-y="1229" d="M125 0v115q81 0 101 21q15 19 15 103v1011h-112v115h217l801 -1115v876q0 84 -15 103q-20 21 -102 21v115h335v-115q-81 0 -101 -21q-15 -19 -15 -103v-1126h-83l-823 1141v-902q0 -84 15 -103q20 -21 102 -21v-115h-335zM490 1555q4 74 31 117q43 66 118 66 q45 0 114 -49q64 -47 99 -47q46 0 53 75h95q-1 -68 -31 -117q-40 -64 -107 -64q-49 0 -111 43q-50 35 -58 40q-24 16 -48 16q-21 0 -38 -19q-18 -20 -22 -61h-95z" />
<glyph unicode="&#xd2;" horiz-adv-x="1531" vert-adv-y="1229" d="M65 680q0 211 113 386q113 177 308 263q129 58 286 58q251 0 449 -171q128 -111 192 -267q52 -128 52 -267q0 -297 -216 -507q-204 -197 -485 -197q-282 0 -484 197q-112 110 -168 255q-47 120 -47 250zM211 680q0 -150 74 -285q84 -153 237 -230q115 -58 243 -58 q227 0 388 164q90 92 134 218q32 93 32 189q0 161 -81 301q-88 155 -244 229q-106 50 -235 50q-214 0 -372 -156q-92 -91 -139 -217q-37 -101 -37 -205zM540 1782h146l167 -290h-111z" />
<glyph unicode="&#xd3;" horiz-adv-x="1531" vert-adv-y="1229" d="M65 680q0 211 113 386q113 177 308 263q129 58 286 58q251 0 449 -171q128 -111 192 -267q52 -128 52 -267q0 -297 -216 -507q-204 -197 -485 -197q-282 0 -484 197q-112 110 -168 255q-47 120 -47 250zM211 680q0 -150 74 -285q84 -153 237 -230q115 -58 243 -58 q227 0 388 164q90 92 134 218q32 93 32 189q0 161 -81 301q-88 155 -244 229q-106 50 -235 50q-214 0 -372 -156q-92 -91 -139 -217q-37 -101 -37 -205zM677 1492l167 290h146l-202 -290h-111z" />
<glyph unicode="&#xd4;" horiz-adv-x="1531" vert-adv-y="1229" d="M65 680q0 211 113 386q113 177 308 263q129 58 286 58q251 0 449 -171q128 -111 192 -267q52 -128 52 -267q0 -297 -216 -507q-204 -197 -485 -197q-282 0 -484 197q-112 110 -168 255q-47 120 -47 250zM211 680q0 -150 74 -285q84 -153 237 -230q115 -58 243 -58 q227 0 388 164q90 92 134 218q32 93 32 189q0 161 -81 301q-88 155 -244 229q-106 50 -235 50q-214 0 -372 -156q-92 -91 -139 -217q-37 -101 -37 -205zM511 1494l215 281h87l207 -281h-114l-139 184l-139 -184h-117z" />
<glyph unicode="&#xd5;" horiz-adv-x="1531" vert-adv-y="1229" d="M65 680q0 211 113 386q113 177 308 263q129 58 286 58q251 0 449 -171q128 -111 192 -267q52 -128 52 -267q0 -297 -216 -507q-204 -197 -485 -197q-282 0 -484 197q-112 110 -168 255q-47 120 -47 250zM211 680q0 -150 74 -285q84 -153 237 -230q115 -58 243 -58 q227 0 388 164q90 92 134 218q32 93 32 189q0 161 -81 301q-88 155 -244 229q-106 50 -235 50q-214 0 -372 -156q-92 -91 -139 -217q-37 -101 -37 -205zM510 1555q4 74 31 117q43 66 118 66q45 0 114 -49q64 -47 99 -47q46 0 53 75h95q-1 -68 -31 -117q-40 -64 -107 -64 q-49 0 -111 43q-50 35 -58 40q-24 16 -48 16q-21 0 -38 -19q-18 -20 -22 -61h-95z" />
<glyph unicode="&#xd6;" horiz-adv-x="1531" vert-adv-y="1229" d="M65 680q0 211 113 386q113 177 308 263q129 58 286 58q251 0 449 -171q128 -111 192 -267q52 -128 52 -267q0 -297 -216 -507q-204 -197 -485 -197q-282 0 -484 197q-112 110 -168 255q-47 120 -47 250zM211 680q0 -150 74 -285q84 -153 237 -230q115 -58 243 -58 q227 0 388 164q90 92 134 218q32 93 32 189q0 161 -81 301q-88 155 -244 229q-106 50 -235 50q-214 0 -372 -156q-92 -91 -139 -217q-37 -101 -37 -205zM533 1637q0 35 24 58q25 24 59 24q33 0 57 -24t24 -58t-24 -58t-58 -24t-58 24t-24 58zM833 1637q0 35 24 58 q25 24 59 24q33 0 57 -24t24 -58t-24 -58t-58 -24t-58 24t-24 58z" />
<glyph unicode="&#xd7;" vert-adv-y="1229" d="M163 376l269 269l-269 270l79 79l270 -270l269 270l79 -79l-269 -270l269 -269l-79 -79l-269 269l-270 -269z" />
<glyph unicode="&#xd8;" horiz-adv-x="1531" vert-adv-y="1229" d="M70 682q0 209 114 384q116 179 306 263q131 58 278 58q261 0 456 -170l137 137l81 -80l-138 -138q166 -201 166 -454q0 -297 -216 -507q-204 -197 -485 -197q-257 0 -454 170l-137 -137l-80 80l137 137q-165 202 -165 454zM216 680q0 -197 118 -353l795 794 q-153 137 -359 137q-221 0 -378 -156q-92 -91 -139 -217q-37 -101 -37 -205zM411 243q162 -136 358 -136q228 0 389 164q90 92 134 219q32 93 32 190q0 186 -119 357z" />
<glyph unicode="&#xd9;" horiz-adv-x="1359" vert-adv-y="1229" d="M109 1250v115h365v-115h-111v-710q0 -184 53 -271q44 -72 124 -116q84 -46 177 -46q114 0 206 67q100 73 122 214q10 60 10 144v594q-1 84 -15 103q-20 21 -101 21v115h335v-115q-82 0 -102 -21q-15 -19 -15 -103v-628q0 -214 -82 -328q-64 -90 -162 -141 q-100 -51 -217 -51q-161 0 -288 92q-131 96 -164 244q-20 88 -20 182v754h-115zM455 1782h146l167 -290h-111z" />
<glyph unicode="&#xda;" horiz-adv-x="1359" vert-adv-y="1229" d="M109 1250v115h365v-115h-111v-710q0 -184 53 -271q44 -72 124 -116q84 -46 177 -46q114 0 206 67q100 73 122 214q10 60 10 144v594q-1 84 -15 103q-20 21 -101 21v115h335v-115q-82 0 -102 -21q-15 -19 -15 -103v-628q0 -214 -82 -328q-64 -90 -162 -141 q-100 -51 -217 -51q-161 0 -288 92q-131 96 -164 244q-20 88 -20 182v754h-115zM592 1492l167 290h146l-202 -290h-111z" />
<glyph unicode="&#xdb;" horiz-adv-x="1359" vert-adv-y="1229" d="M109 1250v115h365v-115h-111v-710q0 -184 53 -271q44 -72 124 -116q84 -46 177 -46q114 0 206 67q100 73 122 214q10 60 10 144v594q-1 84 -15 103q-20 21 -101 21v115h335v-115q-82 0 -102 -21q-15 -19 -15 -103v-628q0 -214 -82 -328q-64 -90 -162 -141 q-100 -51 -217 -51q-161 0 -288 92q-131 96 -164 244q-20 88 -20 182v754h-115zM426 1494l215 281h87l207 -281h-114l-139 184l-139 -184h-117z" />
<glyph unicode="&#xdc;" horiz-adv-x="1359" vert-adv-y="1229" d="M109 1250v115h365v-115h-111v-710q0 -184 53 -271q44 -72 124 -116q84 -46 177 -46q114 0 206 67q100 73 122 214q10 60 10 144v594q-1 84 -15 103q-20 21 -101 21v115h335v-115q-82 0 -102 -21q-15 -19 -15 -103v-628q0 -214 -82 -328q-64 -90 -162 -141 q-100 -51 -217 -51q-161 0 -288 92q-131 96 -164 244q-20 88 -20 182v754h-115zM448 1637q0 35 24 58q25 24 59 24q33 0 57 -24t24 -58t-24 -58t-58 -24t-58 24t-24 58zM748 1637q0 35 24 58q25 24 59 24q33 0 57 -24t24 -58t-24 -58t-58 -24t-58 24t-24 58z" />
<glyph unicode="&#xdd;" horiz-adv-x="1075" vert-adv-y="1229" d="M-42 1250v115h386v-115h-117l324 -527l269 423q32 51 32 73q0 31 -58 31h-54v115h379v-115q-76 -2 -115 -24q-27 -16 -73 -86l-330 -517v-508h119v-115h-380v115h122v487l-397 648h-107zM477 1492l167 290h146l-202 -290h-111z" />
<glyph unicode="&#xde;" horiz-adv-x="983" vert-adv-y="1229" d="M123 0v115h114v1135h-114v115h367v-115h-114v-186h138q177 0 273 -59q84 -53 129 -139q43 -80 43 -179q0 -125 -66 -223q-112 -164 -369 -164h-148v-185h114v-115h-367zM376 416h105q140 0 210 39q122 67 122 224q0 150 -110 223q-71 47 -196 47h-131v-533z" />
<glyph unicode="&#xdf;" horiz-adv-x="1018" vert-adv-y="1229" d="M61 0v109h107v867q0 187 76 287q97 127 272 127q141 0 228 -85q88 -86 88 -222q0 -133 -81 -228q-45 -52 -111 -83q122 -10 201 -84q109 -102 109 -283t-100 -289q-55 -60 -142 -92q-66 -24 -128 -24h-95v109q102 0 154 14q177 48 177 283q0 195 -158 262q-49 20 -101 24 q-11 1 -71 1h-41v111h17q94 0 152 47q46 36 71 110q19 55 19 111q0 95 -64 154q-54 51 -134 51q-125 0 -180 -115q-28 -59 -28 -204v-849h112v-109h-349z" />
<glyph unicode="&#xe0;" horiz-adv-x="922" vert-adv-y="1229" d="M90 245q0 136 110 215q79 57 188 57q80 0 143 -32q35 -17 85 -67v117q0 94 -61 143q-51 41 -141 41q-76 0 -128 -27q-48 -26 -62 -90h-94v177h23q24 -1 28 -1q15 0 48 9q110 29 200 29q188 0 269 -103q48 -61 48 -149v-455h99v-109h-229v88q-48 -47 -88 -68 q-69 -35 -158 -35q-117 0 -194 68q-86 75 -86 192zM222 252q0 -77 57 -127q53 -46 131 -46q136 0 206 124v98q-49 64 -86 87q-55 34 -124 34q-51 0 -96 -24q-88 -47 -88 -146zM236 1304h146l167 -290h-111z" />
<glyph unicode="&#xe1;" horiz-adv-x="922" vert-adv-y="1229" d="M90 245q0 136 110 215q79 57 188 57q80 0 143 -32q35 -17 85 -67v117q0 94 -61 143q-51 41 -141 41q-76 0 -128 -27q-48 -26 -62 -90h-94v177h23q24 -1 28 -1q15 0 48 9q110 29 200 29q188 0 269 -103q48 -61 48 -149v-455h99v-109h-229v88q-48 -47 -88 -68 q-69 -35 -158 -35q-117 0 -194 68q-86 75 -86 192zM222 252q0 -77 57 -127q53 -46 131 -46q136 0 206 124v98q-49 64 -86 87q-55 34 -124 34q-51 0 -96 -24q-88 -47 -88 -146zM373 1014l167 290h146l-202 -290h-111z" />
<glyph unicode="&#xe2;" horiz-adv-x="922" vert-adv-y="1229" d="M90 245q0 136 110 215q79 57 188 57q80 0 143 -32q35 -17 85 -67v117q0 94 -61 143q-51 41 -141 41q-76 0 -128 -27q-48 -26 -62 -90h-94v177h23q24 -1 28 -1q15 0 48 9q110 29 200 29q188 0 269 -103q48 -61 48 -149v-455h99v-109h-229v88q-48 -47 -88 -68 q-69 -35 -158 -35q-117 0 -194 68q-86 75 -86 192zM207 1016l215 281h87l207 -281h-114l-139 184l-139 -184h-117zM222 252q0 -77 57 -127q53 -46 131 -46q136 0 206 124v98q-49 64 -86 87q-55 34 -124 34q-51 0 -96 -24q-88 -47 -88 -146z" />
<glyph unicode="&#xe3;" horiz-adv-x="922" vert-adv-y="1229" d="M90 245q0 136 110 215q79 57 188 57q80 0 143 -32q35 -17 85 -67v117q0 94 -61 143q-51 41 -141 41q-76 0 -128 -27q-48 -26 -62 -90h-94v177h23q24 -1 28 -1q15 0 48 9q110 29 200 29q188 0 269 -103q48 -61 48 -149v-455h99v-109h-229v88q-48 -47 -88 -68 q-69 -35 -158 -35q-117 0 -194 68q-86 75 -86 192zM206 1077q4 74 31 117q43 66 118 66q45 0 114 -49q64 -47 99 -47q46 0 53 75h95q-1 -69 -31 -117q-40 -64 -107 -64q-49 0 -111 43q-50 35 -58 40q-24 16 -48 16q-21 0 -38 -19q-18 -20 -22 -61h-95zM222 252 q0 -77 57 -127q53 -46 131 -46q136 0 206 124v98q-49 64 -86 87q-55 34 -124 34q-51 0 -96 -24q-88 -47 -88 -146z" />
<glyph unicode="&#xe4;" horiz-adv-x="922" vert-adv-y="1229" d="M90 245q0 136 110 215q79 57 188 57q80 0 143 -32q35 -17 85 -67v117q0 94 -61 143q-51 41 -141 41q-76 0 -128 -27q-48 -26 -62 -90h-94v177h23q24 -1 28 -1q15 0 48 9q110 29 200 29q188 0 269 -103q48 -61 48 -149v-455h99v-109h-229v88q-48 -47 -88 -68 q-69 -35 -158 -35q-117 0 -194 68q-86 75 -86 192zM222 252q0 -77 57 -127q53 -46 131 -46q136 0 206 124v98q-49 64 -86 87q-55 34 -124 34q-51 0 -96 -24q-88 -47 -88 -146zM229 1160q0 35 24 58q24 24 59 24q33 0 57 -24t24 -58t-24 -58t-58 -24t-58 24t-24 58zM529 1160 q0 35 24 58q24 24 59 24q33 0 57 -24t24 -58t-24 -58t-58 -24t-58 24t-24 58z" />
<glyph unicode="&#xe5;" horiz-adv-x="922" vert-adv-y="1229" d="M90 245q0 136 110 215q79 57 188 57q80 0 143 -32q35 -17 85 -67v117q0 94 -61 143q-51 41 -141 41q-76 0 -128 -27q-48 -26 -62 -90h-94v177h23q24 -1 28 -1q15 0 48 9q110 29 200 29q188 0 269 -103q48 -61 48 -149v-455h99v-109h-229v88q-48 -47 -88 -68 q-69 -35 -158 -35q-117 0 -194 68q-86 75 -86 192zM222 252q0 -77 57 -127q53 -46 131 -46q136 0 206 124v98q-49 64 -86 87q-55 34 -124 34q-51 0 -96 -24q-88 -47 -88 -146zM284 1158q0 75 52 126q53 52 128 52q71 0 123 -52t52 -126q0 -73 -52 -125t-125 -52 q-74 0 -126 52t-52 125zM358 1158q0 -42 30 -73q31 -30 74 -30q42 0 73 30q30 30 30 73q0 44 -30 74q-31 30 -75 30q-41 0 -72 -30q-30 -30 -30 -74z" />
<glyph unicode="&#xe6;" horiz-adv-x="1437" vert-adv-y="1229" d="M90 245q0 133 111 213q80 58 184 58q82 0 145 -33q34 -17 88 -65v115q0 186 -206 186q-165 0 -189 -119h-95v180h25q32 -2 34 -2q11 0 41 8q114 30 198 30q108 0 169 -26q76 -33 121 -100q52 53 94 77q86 49 191 49q114 0 207 -56q119 -73 153 -235q9 -45 9 -96 q0 -14 -1 -44h-621q6 -126 71 -205q78 -95 193 -95q83 0 153 33q68 31 77 77q3 16 5 59h122v-119q-41 -67 -106 -99q-102 -51 -232 -51q-222 0 -339 171q-57 -88 -135 -131q-74 -40 -185 -40q-124 0 -198 68q-84 77 -84 192zM224 252q0 -77 56 -126q54 -47 132 -47 q136 0 206 125v92q-49 66 -86 90q-55 36 -124 36q-52 0 -96 -23q-88 -45 -88 -147zM751 477h497q-8 87 -56 148q-34 44 -90 68q-50 23 -99 23q-70 0 -134 -42q-94 -60 -118 -197z" />
<glyph unicode="&#xe7;" horiz-adv-x="894" vert-adv-y="1229" d="M68 399q0 184 119 306q109 111 276 111q160 0 255 -95l34 80h65v-297h-99q-12 89 -70 138q-72 60 -172 60q-97 0 -171 -60q-101 -82 -101 -233q0 -158 111 -247q78 -62 177 -62q125 0 193 79q28 33 33 103h99v-146q-49 -58 -110 -92q-108 -59 -226 -59q-158 0 -267 90 q-74 61 -112 154q-34 81 -34 170zM316 -347l111 266h150l-173 -266h-88z" />
<glyph unicode="&#xe8;" horiz-adv-x="893" vert-adv-y="1229" d="M68 403q0 170 102 287q110 126 291 126q148 0 244 -88q110 -101 119 -273q1 -18 1 -69h-622q4 -123 71 -207q75 -94 214 -94q128 0 190 73q22 27 25 96h122v-121q-38 -61 -108 -96q-103 -52 -233 -52q-173 0 -284 102q-132 122 -132 316zM206 477h497q-9 85 -57 148 q-69 91 -185 91q-72 0 -137 -42q-94 -60 -118 -197zM222 1304h146l167 -290h-111z" />
<glyph unicode="&#xe9;" horiz-adv-x="893" vert-adv-y="1229" d="M68 403q0 170 102 287q110 126 291 126q148 0 244 -88q110 -101 119 -273q1 -18 1 -69h-622q4 -123 71 -207q75 -94 214 -94q128 0 190 73q22 27 25 96h122v-121q-38 -61 -108 -96q-103 -52 -233 -52q-173 0 -284 102q-132 122 -132 316zM206 477h497q-9 85 -57 148 q-69 91 -185 91q-72 0 -137 -42q-94 -60 -118 -197zM399 1014l167 290h146l-202 -290h-111z" />
<glyph unicode="&#xea;" horiz-adv-x="893" vert-adv-y="1229" d="M68 403q0 170 102 287q110 126 291 126q148 0 244 -88q110 -101 119 -273q1 -18 1 -69h-622q4 -123 71 -207q75 -94 214 -94q128 0 190 73q22 27 25 96h122v-121q-38 -61 -108 -96q-103 -52 -233 -52q-173 0 -284 102q-132 122 -132 316zM206 477h497q-9 85 -57 148 q-69 91 -185 91q-72 0 -137 -42q-94 -60 -118 -197zM206 1016l215 281h87l207 -281h-114l-139 184l-139 -184h-117z" />
<glyph unicode="&#xeb;" horiz-adv-x="893" vert-adv-y="1229" d="M68 403q0 170 102 287q110 126 291 126q148 0 244 -88q110 -101 119 -273q1 -18 1 -69h-622q4 -123 71 -207q75 -94 214 -94q128 0 190 73q22 27 25 96h122v-121q-38 -61 -108 -96q-103 -52 -233 -52q-173 0 -284 102q-132 122 -132 316zM206 477h497q-9 85 -57 148 q-69 91 -185 91q-72 0 -137 -42q-94 -60 -118 -197zM242 1160q0 35 24 58q24 24 59 24q33 0 57 -24t24 -58t-24 -58t-58 -24t-58 24t-24 58zM542 1160q0 35 24 58q24 24 59 24q33 0 57 -24t24 -58t-24 -58t-58 -24t-58 24t-24 58z" />
<glyph unicode="&#xec;" horiz-adv-x="527" vert-adv-y="1229" d="M39 1304h146l167 -290h-111zM96 0v109h110v583h-110v109h240v-692h107v-109h-347z" />
<glyph unicode="&#xed;" horiz-adv-x="527" vert-adv-y="1229" d="M96 0v109h110v583h-110v109h240v-692h107v-109h-347zM176 1014l167 290h146l-202 -290h-111z" />
<glyph unicode="&#xee;" horiz-adv-x="527" vert-adv-y="1229" d="M9 1016l215 281h87l207 -281h-114l-139 184l-139 -184h-117zM95 0v109h110v583h-110v109h240v-692h107v-109h-347z" />
<glyph unicode="&#xef;" horiz-adv-x="527" vert-adv-y="1229" d="M72 1160q0 35 24 58q24 24 59 24q33 0 57 -24t24 -58t-24 -58t-58 -24t-58 24t-24 58zM95 0v109h110v583h-110v109h240v-692h107v-109h-347zM290 1160q0 35 24 58q24 24 59 24q33 0 57 -24t24 -58t-24 -58t-58 -24t-58 24t-24 58z" />
<glyph unicode="&#xf0;" horiz-adv-x="974" vert-adv-y="1229" d="M68 401q0 177 125 297q122 118 293 118q140 0 258 -86q-23 144 -125 291q-67 96 -171 176l-185 -139l-38 55l166 120q-92 59 -186 90l28 58q26 -9 136 -55q65 -26 93 -43l184 135l38 -52l-158 -116q81 -59 121 -98q155 -148 222 -390q39 -143 39 -300q0 -201 -81 -307 q-60 -79 -147 -124q-91 -46 -193 -46q-171 0 -294 119q-125 120 -125 297zM203 400q0 -125 83 -210q84 -87 201 -87t201 87q83 85 83 209q0 128 -83 211q-86 87 -204 87q-113 0 -198 -87q-83 -85 -83 -210z" />
<glyph unicode="&#xf1;" horiz-adv-x="1041" vert-adv-y="1229" d="M91 0v109h108v583h-108v109h238v-126q100 141 258 141q145 0 228 -103q52 -65 52 -181v-423h98v-109h-228v478q0 226 -189 226q-115 0 -182 -101q-37 -56 -37 -161v-333h105v-109h-343zM279 1077q4 74 31 117q43 66 118 66q45 0 114 -49q64 -47 99 -47q46 0 53 75h95 q-1 -69 -31 -117q-40 -64 -107 -64q-49 0 -111 43q-50 35 -58 40q-24 16 -48 16q-21 0 -38 -19q-18 -20 -22 -61h-95z" />
<glyph unicode="&#xf2;" horiz-adv-x="974" vert-adv-y="1229" d="M68 400q0 181 125 298q125 118 299 118q166 0 290 -118q124 -119 124 -297q0 -177 -124 -297q-124 -119 -295 -119t-294 119q-125 120 -125 296zM203 400q0 -125 83 -210q84 -87 201 -87t201 87q83 85 83 209q0 128 -83 211q-86 87 -204 87q-113 0 -198 -87 q-83 -85 -83 -210zM262 1304h146l167 -290h-111z" />
<glyph unicode="&#xf3;" horiz-adv-x="974" vert-adv-y="1229" d="M68 400q0 181 125 298q125 118 299 118q166 0 290 -118q124 -119 124 -297q0 -177 -124 -297q-124 -119 -295 -119t-294 119q-125 120 -125 296zM203 400q0 -125 83 -210q84 -87 201 -87t201 87q83 85 83 209q0 128 -83 211q-86 87 -204 87q-113 0 -198 -87 q-83 -85 -83 -210zM399 1014l167 290h146l-202 -290h-111z" />
<glyph unicode="&#xf4;" horiz-adv-x="974" vert-adv-y="1229" d="M68 400q0 181 125 298q125 118 299 118q166 0 290 -118q124 -119 124 -297q0 -177 -124 -297q-124 -119 -295 -119t-294 119q-125 120 -125 296zM203 400q0 -125 83 -210q84 -87 201 -87t201 87q83 85 83 209q0 128 -83 211q-86 87 -204 87q-113 0 -198 -87 q-83 -85 -83 -210zM233 1016l215 281h87l207 -281h-114l-139 184l-139 -184h-117z" />
<glyph unicode="&#xf5;" horiz-adv-x="974" vert-adv-y="1229" d="M68 400q0 181 125 298q125 118 299 118q166 0 290 -118q124 -119 124 -297q0 -177 -124 -297q-124 -119 -295 -119t-294 119q-125 120 -125 296zM203 400q0 -125 83 -210q84 -87 201 -87t201 87q83 85 83 209q0 128 -83 211q-86 87 -204 87q-113 0 -198 -87 q-83 -85 -83 -210zM232 1077q4 74 31 117q43 66 118 66q45 0 114 -49q64 -47 99 -47q46 0 53 75h95q-1 -69 -31 -117q-40 -64 -107 -64q-49 0 -111 43q-50 35 -58 40q-24 16 -48 16q-21 0 -38 -19q-18 -20 -22 -61h-95z" />
<glyph unicode="&#xf6;" horiz-adv-x="974" vert-adv-y="1229" d="M68 400q0 181 125 298q125 118 299 118q166 0 290 -118q124 -119 124 -297q0 -177 -124 -297q-124 -119 -295 -119t-294 119q-125 120 -125 296zM203 400q0 -125 83 -210q84 -87 201 -87t201 87q83 85 83 209q0 128 -83 211q-86 87 -204 87q-113 0 -198 -87 q-83 -85 -83 -210zM255 1160q0 35 24 58q24 24 59 24q33 0 57 -24t24 -58t-24 -58t-58 -24t-58 24t-24 58zM555 1160q0 35 24 58q24 24 59 24q33 0 57 -24t24 -58t-24 -58t-58 -24t-58 24t-24 58z" />
<glyph unicode="&#xf7;" vert-adv-y="1229" d="M102 589v112h819v-112h-819zM416 304q0 41 28 68q29 28 69 28q39 0 67 -28t28 -68t-28 -68t-68 -28t-68 28t-28 68zM416 986q0 41 28 68q29 28 69 28q39 0 67 -28t28 -68t-28 -68t-68 -28t-68 28t-28 68z" />
<glyph unicode="&#xf8;" horiz-adv-x="975" vert-adv-y="1229" d="M61 34l104 103q-93 114 -93 264q0 177 124 297q123 118 294 118q150 0 263 -90l96 95l71 -71l-95 -96q85 -113 85 -253q0 -177 -125 -297q-123 -119 -294 -119q-134 0 -253 83l-105 -106zM207 401q0 -92 50 -171l406 406q-77 61 -171 61q-118 0 -202 -87 q-83 -85 -83 -209zM328 157q78 -54 163 -54q117 0 201 87q83 85 83 210q0 89 -44 160z" />
<glyph unicode="&#xf9;" horiz-adv-x="1018" vert-adv-y="1229" d="M72 692v109h227v-478q0 -109 38 -158q53 -68 151 -68q117 0 183 101q37 56 37 161v333h-105v109h235v-692h108v-109h-238v126q-100 -141 -259 -141q-145 0 -228 103q-52 65 -52 181v423h-97zM284 1304h146l167 -290h-111z" />
<glyph unicode="&#xfa;" horiz-adv-x="1018" vert-adv-y="1229" d="M72 692v109h227v-478q0 -109 38 -158q53 -68 151 -68q117 0 183 101q37 56 37 161v333h-105v109h235v-692h108v-109h-238v126q-100 -141 -259 -141q-145 0 -228 103q-52 65 -52 181v423h-97zM421 1014l167 290h146l-202 -290h-111z" />
<glyph unicode="&#xfb;" horiz-adv-x="1018" vert-adv-y="1229" d="M72 692v109h227v-478q0 -109 38 -158q53 -68 151 -68q117 0 183 101q37 56 37 161v333h-105v109h235v-692h108v-109h-238v126q-100 -141 -259 -141q-145 0 -228 103q-52 65 -52 181v423h-97zM255 1016l215 281h87l207 -281h-114l-139 184l-139 -184h-117z" />
<glyph unicode="&#xfc;" horiz-adv-x="1018" vert-adv-y="1229" d="M72 692v109h227v-478q0 -109 38 -158q53 -68 151 -68q117 0 183 101q37 56 37 161v333h-105v109h235v-692h108v-109h-238v126q-100 -141 -259 -141q-145 0 -228 103q-52 65 -52 181v423h-97zM277 1160q0 35 24 58q24 24 59 24q33 0 57 -24t24 -58t-24 -58t-58 -24t-58 24 t-24 58zM577 1160q0 35 24 58q24 24 59 24q33 0 57 -24t24 -58t-24 -58t-58 -24t-58 24t-24 58z" />
<glyph unicode="&#xfd;" horiz-adv-x="899" vert-adv-y="1229" d="M-21 692v109h365v-109h-118l235 -527l207 469q7 16 7 28q0 30 -72 30h-28v109h343v-109h-27q-57 -1 -84 -25q-17 -17 -41 -71l-383 -839h189v-109h-357l177 384l-312 660h-101zM416 1014l167 290h146l-202 -290h-111z" />
<glyph unicode="&#xfe;" horiz-adv-x="1081" vert-adv-y="1229" d="M74 -243h107v1499h-107v109h237v-692q119 143 307 143q164 0 270 -101q125 -119 125 -317q0 -189 -119 -306q-109 -107 -276 -107q-99 0 -183 44q-62 32 -124 103v-375h108v-109h-345v109zM304 408q0 -132 80 -222q84 -93 210 -93t208 89q80 88 80 217q0 137 -83 227 q-76 82 -205 82q-119 0 -208 -91q-82 -85 -82 -209z" />
<glyph unicode="&#xff;" horiz-adv-x="899" vert-adv-y="1229" d="M-21 692v109h365v-109h-118l235 -527l207 469q7 16 7 28q0 30 -72 30h-28v109h343v-109h-27q-57 -1 -84 -25q-17 -17 -41 -71l-383 -839h189v-109h-357l177 384l-312 660h-101zM217 1160q0 35 24 58q24 24 59 24q33 0 57 -24t24 -58t-24 -58t-58 -24t-58 24t-24 58z M517 1160q0 35 24 58q24 24 59 24q33 0 57 -24t24 -58t-24 -58t-58 -24t-58 24t-24 58z" />
<glyph unicode="&#x152;" horiz-adv-x="1974" vert-adv-y="1229" d="M66 683q0 322 241 533q196 171 462 171q127 0 226 -36q76 -28 172 -99v113h704v-350h-82l-40 237h-442v-487h349v-108h-349v-543h442l40 255h85v-369h-707v114q-103 -74 -188 -103q-97 -33 -208 -33q-288 0 -492 198q-213 208 -213 507zM210 676q0 -147 73 -281 q82 -152 237 -229q121 -60 251 -60q183 0 323 106q39 29 73 78v791q-29 35 -58 58q-150 120 -344 120q-221 0 -379 -156q-90 -89 -138 -218q-38 -104 -38 -209z" />
<glyph unicode="&#x153;" horiz-adv-x="1589" vert-adv-y="1229" d="M66 407q0 174 122 290q125 119 294 119q133 0 247 -77q46 -31 100 -102q51 80 108 118q92 61 212 61q150 0 249 -86q112 -98 121 -273q1 -24 1 -71h-622q4 -125 69 -204q79 -97 206 -97q76 0 142 33q67 33 75 76q3 16 5 59h125v-119q-103 -149 -335 -149q-146 0 -236 62 q-50 36 -120 126q-61 -87 -123 -126q-101 -62 -222 -62q-174 0 -295 120q-123 122 -123 302zM199 401q0 -125 83 -210q84 -87 201 -87t201 87q83 85 83 209q0 128 -83 210q-87 87 -204 87q-113 0 -198 -87q-83 -84 -83 -209zM903 477h494q-7 87 -56 148q-34 44 -89 68 q-51 23 -100 23q-69 0 -134 -41q-102 -66 -115 -198z" />
<glyph unicode="&#x178;" horiz-adv-x="1075" vert-adv-y="1229" d="M-42 1250v115h386v-115h-117l324 -527l269 423q32 51 32 73q0 31 -58 31h-54v115h379v-115q-76 -2 -115 -24q-27 -16 -73 -86l-330 -517v-508h119v-115h-380v115h122v487l-397 648h-107zM306 1637q0 35 24 58q25 24 59 24q33 0 57 -24t24 -58t-24 -58t-58 -24t-58 24 t-24 58zM606 1637q0 35 24 58q24 24 59 24q33 0 57 -24t24 -58t-24 -58t-58 -24t-58 24t-24 58z" />
<glyph unicode="&#x2c6;" horiz-adv-x="1005" vert-adv-y="1229" d="M248 1016l215 281h87l207 -281h-114l-139 184l-139 -184h-117z" />
<glyph unicode="&#x2dc;" vert-adv-y="1229" d="M257 1077q4 74 31 117q43 66 118 66q45 0 114 -49q64 -47 99 -47q46 0 53 75h95q-1 -69 -31 -117q-40 -64 -107 -64q-49 0 -111 43q-50 35 -58 40q-24 16 -48 16q-21 0 -38 -19q-18 -20 -22 -61h-95z" />
<glyph unicode="&#x2000;" horiz-adv-x="921" vert-adv-y="0" />
<glyph unicode="&#x2001;" horiz-adv-x="1842" vert-adv-y="0" />
<glyph unicode="&#x2002;" horiz-adv-x="921" vert-adv-y="0" />
<glyph unicode="&#x2003;" horiz-adv-x="1842" vert-adv-y="0" />
<glyph unicode="&#x2004;" horiz-adv-x="614" vert-adv-y="0" />
<glyph unicode="&#x2005;" horiz-adv-x="460" vert-adv-y="0" />
<glyph unicode="&#x2006;" horiz-adv-x="307" vert-adv-y="0" />
<glyph unicode="&#x2007;" horiz-adv-x="307" vert-adv-y="0" />
<glyph unicode="&#x2008;" horiz-adv-x="230" vert-adv-y="0" />
<glyph unicode="&#x2009;" horiz-adv-x="368" vert-adv-y="0" />
<glyph unicode="&#x200a;" horiz-adv-x="102" vert-adv-y="0" />
<glyph unicode="&#x2010;" horiz-adv-x="452" vert-adv-y="1229" d="M0 373v107h452v-107h-452z" />
<glyph unicode="&#x2011;" horiz-adv-x="452" vert-adv-y="1229" d="M0 373v107h452v-107h-452z" />
<glyph unicode="&#x2012;" horiz-adv-x="452" vert-adv-y="1229" d="M0 373v107h452v-107h-452z" />
<glyph unicode="&#x2013;" horiz-adv-x="1048" vert-adv-y="1229" d="M82 377v99h884v-99h-884z" />
<glyph unicode="&#x2014;" horiz-adv-x="1143" vert-adv-y="1229" d="M0 377v99h1143v-99h-1143z" />
<glyph unicode="&#x2018;" horiz-adv-x="546" vert-adv-y="1229" d="M141 911l168 483h97l-123 -483h-142z" />
<glyph unicode="&#x2019;" horiz-adv-x="546" vert-adv-y="1229" d="M141 902l123 483h142l-168 -483h-97z" />
<glyph unicode="&#x201a;" horiz-adv-x="478" vert-adv-y="1229" d="M56 -306l123 483h142l-168 -483h-97z" />
<glyph unicode="&#x201c;" horiz-adv-x="791" vert-adv-y="1229" d="M141 911l168 483h97l-123 -483h-142zM386 911l168 483h97l-123 -483h-142z" />
<glyph unicode="&#x201d;" horiz-adv-x="791" vert-adv-y="1229" d="M141 902l123 483h142l-168 -483h-97zM386 902l123 483h142l-169 -483h-96z" />
<glyph unicode="&#x201e;" horiz-adv-x="774" vert-adv-y="1229" d="M141 -306l123 483h142l-168 -483h-97zM369 -306l123 483h142l-168 -483h-97z" />
<glyph unicode="&#x2022;" horiz-adv-x="1365" vert-adv-y="1229" d="M401 694q0 121 84 202q86 82 204 82q113 0 196 -83q84 -83 84 -201t-83 -201t-201 -83q-116 0 -199 82q-85 84 -85 202z" />
<glyph unicode="&#x2026;" horiz-adv-x="1090" vert-adv-y="1229" d="M96 67q0 35 25 61q25 25 61 25q35 0 61 -25q25 -25 25 -61t-25 -61t-62 -25q-36 0 -60 25q-25 26 -25 61zM459 67q0 35 25 61q25 25 61 25q35 0 61 -25q25 -25 25 -61t-25 -61t-62 -25q-36 0 -60 25q-25 26 -25 61zM823 67q0 35 25 61q25 25 61 25q35 0 61 -25 q25 -25 25 -61t-25 -61t-62 -25q-36 0 -60 25q-25 26 -25 61z" />
<glyph unicode="&#x202f;" horiz-adv-x="368" vert-adv-y="0" />
<glyph unicode="&#x2039;" horiz-adv-x="481" vert-adv-y="1229" d="M84 410l184 356h126l-185 -356l185 -356h-126z" />
<glyph unicode="&#x203a;" horiz-adv-x="481" vert-adv-y="1229" d="M87 54l184 356l-184 356h126l184 -356l-184 -356h-126z" />
<glyph unicode="&#x205f;" horiz-adv-x="460" vert-adv-y="0" />
<glyph unicode="&#x20ac;" horiz-adv-x="1446" vert-adv-y="1229" d="M14 742l49 120h169q45 161 149 284t247 188q140 64 298 64q284 0 506 -213l-51 -122q-185 215 -457 215q-257 0 -436 -191q-91 -97 -131 -225h780h159l-49 -120h-915q-2 -37 -2 -58t2 -60h866l-50 -120h-791q28 -94 95 -183q77 -101 189 -161q132 -72 282 -72 q275 0 458 215v-170q-213 -166 -455 -166q-223 0 -406 126q-215 148 -288 411h-216l49 120h146q-2 40 -2 61q0 24 2 57h-197z" />
<glyph unicode="&#x2122;" horiz-adv-x="1592" vert-adv-y="1229" d="M31 1146v219h560v-219h-59l-32 149h-142v-630h72v-78h-238v78h71v630h-142l-31 -149h-59zM630 587v78q42 0 56 6q12 6 12 57v559h-61v78h150l282 -600l279 600h157v-78h-63v-622h63v-78h-227v78h69v534l-279 -596h-22l-274 586v-461q0 -53 14 -58t53 -5v-78h-209z" />
<glyph unicode="&#x25fc;" horiz-adv-x="800" vert-adv-y="1600" d="M0 0v800h800v-800h-800z" />
</font>
</defs>
</svg>
